<?xml version="1.0" encoding="utf-8"?>
<!-- Generator: Adobe Illustrator 21.1.0, SVG Export Plug-In . SVG Version: 6.00 Build 0)  -->
<svg version="1.1" id="Layer_1" xmlns="http://www.w3.org/2000/svg" xmlns:xlink="http://www.w3.org/1999/xlink" x="0px" y="0px"
	 viewBox="0 0 612 792" style="enable-background:new 0 0 612 792;" xml:space="preserve">
<style type="text/css">
	.st0{fill:none;stroke:#000000;stroke-width:2;stroke-miterlimit:10;}
</style>
<polygon class="st0" points="275.5,185.7 252.2,172 238.3,152.7 230.9,130.1 230.9,106.3 238.3,83.7 252.2,64.4 271.5,50.5 
	294.1,43.1 317.9,43.1 340.5,50.5 359.8,64.4 373.7,83.7 381.1,106.3 381.1,130.1 373.7,152.7 359.8,172 336.5,185.7 339.2,195.5 
	351.5,205.3 358,205.3 375.8,205.3 375.8,205.3 419.7,232.5 505.9,394.1 519.6,407.3 519.6,407.3 510.6,443.5 473.2,433.9 
	470.1,415.6 391.1,295.3 382.3,298.6 393.5,458.7 393.5,557.2 393.5,701.1 437.1,722 422.5,756 348.8,756 333.1,740.5 318.5,504.8 
	306,492.4 306,492.4 293.5,504.8 278.9,740.5 263.2,756 189.5,756 174.9,722 218.5,701.1 218.5,557.2 218.5,458.7 229.7,298.6 
	220.9,295.3 141.9,415.6 138.8,433.9 101.4,443.5 92.4,407.3 106.1,394.1 192.3,232.5 236.2,205.3 236.2,205.3 254,205.3 
	260.5,205.3 272.8,195.5 "/>
</svg>
